<svg version="1.1" xmlns="http://www.w3.org/2000/svg" viewBox="0 0 572 753" width="572" height="753">
  <!-- svg-source:excalidraw -->
  
  <defs>
    <style class="style-fonts">
      @font-face {
        font-family: "Virgil";
        src: url("https://excalidraw.com/Virgil.woff2");
      }
      @font-face {
        font-family: "Cascadia";
        src: url("https://excalidraw.com/Cascadia.woff2");
      }
    </style>
    
  </defs>
  <rect x="0" y="0" width="572" height="753" fill="none"></rect><g stroke-linecap="round" transform="translate(10 10) rotate(0 276 366.5)"><path d="M32 0 M32 0 C159.19 0.01, 285.76 -0.28, 520 0 M32 0 C139.21 -1.57, 245.43 -1.59, 520 0 M520 0 C543.05 1.18, 553.79 10.08, 552 32 M520 0 C542.98 0.43, 549.82 11.49, 552 32 M552 32 C551.04 289.49, 550.82 545.94, 552 701 M552 32 C553.08 236.05, 552.95 440.67, 552 701 M552 701 C551.56 722.67, 540.46 732.99, 520 733 M552 701 C551.16 720.92, 542.3 731.61, 520 733 M520 733 C352.01 731.3, 183.29 731.94, 32 733 M520 733 C366.27 731.56, 213.1 732.31, 32 733 M32 733 C10.26 731.16, 0.82 722.32, 0 701 M32 733 C11.27 733.86, -1.31 721.25, 0 701 M0 701 C-0.49 565.95, -0.63 430.17, 0 32 M0 701 C2.88 464.76, 2.95 227.84, 0 32 M0 32 C-0.3 10.11, 11.65 0.07, 32 0 M0 32 C0.95 8.97, 11.4 -1.13, 32 0" stroke="#1e1e1e" stroke-width="1" fill="none"></path></g><g transform="translate(220 97) rotate(0 84.69166564941406 12.5)"><text x="0" y="0" font-family="Virgil, Segoe UI Emoji" font-size="20px" fill="#1e1e1e" text-anchor="start" style="white-space: pre;" direction="ltr" dominant-baseline="text-before-edge">yVPN, *Your* VPN</text></g><g stroke-linecap="round"><g transform="translate(390 132) rotate(0 -135.5573839852667 296.73220476477405)"><path d="M-0.59 0.22 C7.43 15.06, 78.23 79.07, 49.01 89.35 C19.8 99.62, -114.9 55.2, -175.88 61.88 C-236.86 68.55, -297.64 95.38, -316.87 129.4 C-336.09 163.41, -314.87 231.87, -291.23 265.96 C-267.59 300.05, -219.44 325.42, -175.02 333.96 C-130.6 342.5, -41.26 343.43, -24.69 317.19 C-8.12 290.94, -44.27 183.85, -75.58 176.49 C-106.89 169.14, -186.14 231.43, -212.57 273.06 C-239 314.68, -252.6 384.94, -234.15 426.23 C-215.7 467.53, -125.59 492.84, -101.86 520.83 C-78.14 548.82, -93.8 581.86, -91.8 594.18 M1.3 -0.71 C9.17 13.72, 78.15 76.86, 48.59 87.41 C19.03 97.96, -114.68 55.48, -176.06 62.61 C-237.44 69.74, -300.22 96.75, -319.68 130.19 C-339.14 163.62, -317.17 228.89, -292.82 263.19 C-268.48 297.5, -218.44 326.72, -173.62 336.03 C-128.79 345.35, -40.61 345.76, -23.88 319.07 C-7.16 292.38, -42.08 183.26, -73.25 175.89 C-104.42 168.52, -183.66 233.26, -210.88 274.84 C-238.11 316.42, -254.31 384.75, -236.6 425.38 C-218.88 466.01, -129.05 490.52, -104.61 518.6 C-80.17 546.67, -91.96 581.22, -89.97 593.84" stroke="#1e1e1e" stroke-width="1" fill="none"></path></g><g transform="translate(390 132) rotate(0 -135.5573839852667 296.73220476477405)"><path d="M-98.87 567 C-95.13 577.86, -94.12 588.52, -90.97 593.46 M-98.98 564.63 C-96.2 575.81, -92.68 586.29, -89.26 593.21" stroke="#1e1e1e" stroke-width="1" fill="none"></path></g><g transform="translate(390 132) rotate(0 -135.5573839852667 296.73220476477405)"><path d="M-78.37 567.71 C-82.27 578.21, -88.9 588.6, -90.97 593.46 M-78.47 565.35 C-83.49 576.08, -87.75 586.28, -89.26 593.21" stroke="#1e1e1e" stroke-width="1" fill="none"></path></g></g><mask></mask></svg>
